<svg xmlns="http://www.w3.org/2000/svg" viewBox="0 0 128 128"><defs><style>.cls-1{isolation:isolate;}.cls-2{mix-blend-mode:multiply;}.cls-3{fill:#f2cb7c;}.cls-4{fill:#32353d;}.cls-5{fill:#e2b596;}.cls-6{fill:#ce8f7c;}.cls-7,.cls-8{fill:none;}.cls-10,.cls-7,.cls-8{stroke:#000;}.cls-10,.cls-11,.cls-7,.cls-8,.cls-9{stroke-linecap:round;stroke-linejoin:round;}.cls-7{stroke-width:2px;}.cls-8{stroke-width:4px;}.cls-9{fill:#af2031;stroke:#af2031;}.cls-11{fill:#fff;stroke:#fff;}.cls-12{opacity:0.36;}</style></defs><title>wonder-woman</title><g class="cls-1"><g id="icons" class="cls-2"><g id="_Group_" data-name="&lt;Group&gt;"><path class="cls-3" d="M100.63,53H72l-8,6-8-6H27.37a44.575,44.575,0,0,1,3.76-8.97A3.977,3.977,0,0,1,34.61,42h3.5a8.081,8.081,0,0,0,3.58-.84L64,30,86.31,41.16a8.081,8.081,0,0,0,3.58.84h3.5a3.977,3.977,0,0,1,3.48,2.03A44.575,44.575,0,0,1,100.63,53Z"/><path class="cls-4" d="M27.37,53H40.36a15.236,15.236,0,0,1-8.04,10c-3.15,1.63-7.99,5.71-8.29,15.53C24.17,69.99,24.92,61.02,27.37,53Z"/><path class="cls-4" d="M100.63,53c2.45,8.02,3.2,16.99,3.34,25.53-.3-9.82-5.14-13.9-8.29-15.53a15.236,15.236,0,0,1-8.04-10Z"/><path class="cls-4" d="M97.04,107c-.19.22-.38.43-.58.64l-.77-.64c4.94-5.64,8.31-13.84,8.31-25,0-.83,0-1.66-.02-2.5,0-.33,0-.65-.01-.97-.14-8.54-.89-17.51-3.34-25.53a44.575,44.575,0,0,0-3.76-8.97A3.977,3.977,0,0,0,93.39,42h-3.5a8.081,8.081,0,0,1-3.58-.84L64,30,41.69,41.16a8.081,8.081,0,0,1-3.58.84h-3.5a3.977,3.977,0,0,0-3.48,2.03A44.575,44.575,0,0,0,27.37,53c-2.45,8.02-3.2,16.99-3.34,25.53-.01.32-.01.64-.01.97C24,80.34,24,81.17,24,82c0,11.16,3.37,19.36,8.31,25l-.77.64c-.2-.21-.39-.42-.58-.64H11s10.19-10.81,4-39C6,27,42,11,64,20c22-9,58,7,49,48-6.19,28.19,4,39,4,39Z"/><path class="cls-5" d="M103.98,79.5c.02.84.02,1.67.02,2.5,0,11.16-3.37,19.36-8.31,25l.77.64C90.32,114.11,80.01,117,64,117s-26.32-2.89-32.46-9.36l.77-.64C27.37,101.36,24,93.16,24,82c0-.83,0-1.66.02-2.5,0-.33,0-.65.01-.97.3-9.82,5.14-13.9,8.29-15.53a15.236,15.236,0,0,0,8.04-10H56l8,6,8-6H87.64a15.236,15.236,0,0,0,8.04,10c3.15,1.63,7.99,5.71,8.29,15.53C103.98,78.85,103.98,79.17,103.98,79.5Z"/><path class="cls-6" d="M69.53,116.87c.435-.021.853-.05,1.279-.076s.873-.051,1.3-.084c.31-.023.61-.052.914-.078.559-.049,1.115-.1,1.656-.158.2-.021.394-.044.589-.067.679-.079,1.349-.164,2-.26l.191-.028c8.622-1.293,14.793-4.045,19-8.48l-.77-.64c4.94-5.64,8.31-13.84,8.31-25,0-.83,0-1.66-.02-2.5,0-.33,0-.65-.01-.97-.019-.634-.059-1.243-.115-1.83-1.169,20.071-10.41,29.04-34.325,30.17-1.76.09-3.6.13-5.53.13a79.688,79.688,0,0,1-17.83-1.69C31.288,101.855,25.095,92.9,24.14,76.736q-.08.864-.11,1.794c-.01.32-.01.64-.01.97C24,80.34,24,81.17,24,82c0,11.16,3.37,19.36,8.31,25l-.77.64c4.6,4.851,11.552,7.69,21.49,8.806l.019,0c.761.085,1.544.158,2.341.224l.386.031c.685.053,1.387.1,2.1.135.2.011.4.023.6.033.676.033,1.369.056,2.069.076.223.006.44.016.666.021.911.021,1.839.032,2.789.032q1.479,0,2.892-.034Q68.24,116.934,69.53,116.87Z"/><polyline class="cls-7" points="27.37 53 40.36 53 56 53 64 59"/><polyline class="cls-7" points="64 59 72 53 87.64 53 100.63 53"/><path class="cls-7" d="M103.98,79.5c.02.84.02,1.67.02,2.5,0,11.16-3.37,19.36-8.31,25"/><path class="cls-7" d="M24.03,78.53c.14-8.54.89-17.51,3.34-25.53a44.575,44.575,0,0,1,3.76-8.97A3.977,3.977,0,0,1,34.61,42h3.5a8.081,8.081,0,0,0,3.58-.84L64,30,86.31,41.16a8.081,8.081,0,0,0,3.58.84h3.5a3.977,3.977,0,0,1,3.48,2.03A44.575,44.575,0,0,1,100.63,53c2.45,8.02,3.2,16.99,3.34,25.53"/><path class="cls-7" d="M32.31,107C27.37,101.36,24,93.16,24,82c0-.83,0-1.66.02-2.5"/><path class="cls-8" d="M96.46,107.64c.2-.21.39-.42.58-.64H117s-10.19-10.81-4-39c9-41-27-57-49-48C42,11,6,27,15,68c6.19,28.19-4,39-4,39H30.96c.19.22.38.43.58.64C37.68,114.11,47.99,117,64,117S90.32,114.11,96.46,107.64Z"/><path class="cls-7" d="M24.02,79.5c0-.33,0-.65.01-.97.3-9.82,5.14-13.9,8.29-15.53a15.236,15.236,0,0,0,8.04-10"/><path class="cls-7" d="M87.64,53a15.236,15.236,0,0,0,8.04,10c3.15,1.63,7.99,5.71,8.29,15.53.01.32.01.64.01.97"/></g><path class="cls-9" d="M64,35.5l1.5,4.844a1.226,1.226,0,0,0,1.159.885H71.5l-3.919,2.994a1.319,1.319,0,0,0-.443,1.432l1.5,4.844-3.919-2.994a1.17,1.17,0,0,0-1.432,0L59.365,50.5l1.5-4.844a1.319,1.319,0,0,0-.443-1.432L56.5,41.229h4.844a1.226,1.226,0,0,0,1.159-.885Z"/><circle class="cls-10" cx="49" cy="73" r="5.5"/><ellipse class="cls-11" cx="49" cy="72.5" rx="1.5" ry="2"/><circle class="cls-10" cx="79" cy="73" r="5.5"/><g class="cls-12"><path d="M43.918,61.507a10.441,10.441,0,0,1,3.3-.438,13.939,13.939,0,0,1,3.284.424,12.68,12.68,0,0,1,5.776,3.091.508.508,0,0,1-.53.841l-.025-.009c-.984-.366-1.9-.779-2.853-1.1-.939-.35-1.895-.632-2.856-.887a28.172,28.172,0,0,0-2.934-.6c-.985-.154-2.014-.26-3-.331l-.049,0a.5.5,0,0,1-.116-.983Z"/></g><g class="cls-12"><path d="M82.918,62.493c-.984.071-2.013.177-3,.331a28.172,28.172,0,0,0-2.934.6c-.961.254-1.917.536-2.856.887-.952.326-1.869.738-2.853,1.1l-.024.009a.508.508,0,0,1-.53-.841A12.68,12.68,0,0,1,76.5,61.493a13.939,13.939,0,0,1,3.284-.424,10.441,10.441,0,0,1,3.3.438.5.5,0,0,1-.115.983Z"/></g><ellipse class="cls-11" cx="79" cy="72.5" rx="1.5" ry="2"/><path class="cls-10" d="M75.5,93.67s-10,7.83-25-2.17C50.5,103.435,70.5,107.775,75.5,93.67Z"/><g class="cls-12"><path d="M52.354,102.646c.736.374,1.544.759,2.322,1.108s1.586.675,2.392.993,1.633.593,2.466.882,1.682.545,2.538.875l.014.005a.51.51,0,0,1-.155.985,14.267,14.267,0,0,1-5.561-.885,12.818,12.818,0,0,1-2.567-1.269,7.819,7.819,0,0,1-2.155-1.987.5.5,0,0,1,.639-.742Z"/></g></g></g></svg>